<?xml version="1.0" encoding="utf-8"?>
<svg viewBox="0 0 500 500" xmlns="http://www.w3.org/2000/svg">
  <circle style="fill: rgb(206, 106, 133);" cx="249.477" cy="250.734" r="249.019"/>
  <path d="M 84.537 340.842 L 36.717 340.842 L 36.717 160.142 L 104.547 160.142 C 114.187 160.142 123.41 161.115 132.217 163.062 C 141.017 165.009 148.707 168.345 155.287 173.072 C 161.867 177.799 167.104 184.005 170.997 191.692 C 174.884 199.385 176.827 208.885 176.827 220.192 C 176.827 231.312 174.837 240.855 170.857 248.822 C 166.87 256.795 161.54 263.329 154.867 268.422 C 148.194 273.522 140.504 277.322 131.797 279.822 C 123.084 282.322 114 283.572 104.547 283.572 L 84.537 283.572 L 84.537 340.842 Z M 84.537 197.952 L 84.537 245.762 L 102.327 245.762 C 111.78 245.762 118.777 243.539 123.317 239.092 C 127.857 234.645 130.127 228.345 130.127 220.192 C 130.127 212.039 127.717 206.292 122.897 202.952 C 118.077 199.619 111.22 197.952 102.327 197.952 L 84.537 197.952 ZM 256.637 344.182 C 244.964 344.182 233.984 342.282 223.697 338.482 C 213.41 334.682 204.42 328.935 196.727 321.242 C 189.034 313.549 182.964 303.912 178.517 292.332 C 174.07 280.745 171.847 267.262 171.847 251.882 C 171.847 236.682 174.07 223.152 178.517 211.292 C 182.964 199.432 189.034 189.472 196.727 181.412 C 204.42 173.345 213.457 167.229 223.837 163.062 C 234.21 158.889 245.237 156.802 256.917 156.802 C 269.15 156.802 279.714 159.165 288.607 163.892 C 297.5 168.619 304.914 174.042 310.847 180.162 L 284.717 209.622 C 281.01 205.915 277.07 203.045 272.897 201.012 C 268.73 198.972 263.404 197.952 256.917 197.952 C 251.91 197.952 247.23 199.155 242.877 201.562 C 238.524 203.975 234.724 207.405 231.477 211.852 C 228.237 216.299 225.69 221.765 223.837 228.252 C 221.984 234.739 221.057 242.059 221.057 250.212 C 221.057 267.265 224.207 280.332 230.507 289.412 C 236.807 298.492 246.444 303.032 259.417 303.032 C 261.644 303.032 263.867 302.755 266.087 302.202 C 268.314 301.642 270.167 300.809 271.647 299.702 L 271.647 274.682 L 249.127 274.682 L 249.127 235.762 L 314.187 235.762 L 314.187 321.942 C 311.034 324.722 307.374 327.455 303.207 330.142 C 299.034 332.829 294.444 335.192 289.437 337.232 C 284.437 339.265 279.157 340.932 273.597 342.232 C 268.037 343.532 262.384 344.182 256.637 344.182 ZM 371.747 252.992 L 368.967 265.502 L 401.217 265.502 L 398.437 252.992 C 396.397 244.285 394.22 234.879 391.907 224.772 C 389.587 214.672 387.407 204.989 385.367 195.722 L 384.257 195.722 C 382.217 204.989 380.134 214.672 378.007 224.772 C 375.874 234.879 373.787 244.285 371.747 252.992 Z M 351.457 340.842 L 302.527 340.842 L 357.017 160.142 L 414.837 160.142 L 469.327 340.842 L 418.727 340.842 L 409.837 302.482 L 360.347 302.482 L 351.457 340.842 Z" transform="matrix(1, 0, 0, 1, 0, 0)" style="fill: rgb(47, 47, 47); white-space: pre;"/>
</svg>