<svg xmlns="http://www.w3.org/2000/svg" width="500" height="500" viewBox="0 0 500 500"><circle cx="249.477" cy="250.734" r="249.019" fill="#CE6A85"/><path fill="#2F2F2F" d="M 71.207 330.443 Q 50.415 330.443 35.951 323.324 Q 21.487 316.205 11.317 304.905 L 33.917 282.079 Q 49.963 300.159 73.467 300.159 Q 86.123 300.159 92.225 294.961 Q 98.327 289.763 98.327 281.175 Q 98.327 274.621 94.711 270.214 Q 91.095 265.807 80.021 264.225 L 64.427 262.191 Q 39.341 259.027 27.702 247.049 Q 16.063 235.071 16.063 215.183 Q 16.063 204.561 20.131 195.747 Q 24.199 186.933 31.77 180.605 Q 39.341 174.277 50.302 170.774 Q 61.263 167.271 75.275 167.271 Q 93.129 167.271 106.689 172.921 Q 120.249 178.571 129.967 189.419 L 107.141 212.471 Q 101.491 205.917 93.468 201.736 Q 85.445 197.555 73.241 197.555 Q 61.715 197.555 56.065 201.623 Q 50.415 205.691 50.415 212.923 Q 50.415 221.059 54.822 224.675 Q 59.229 228.291 69.173 229.873 L 84.767 232.359 Q 109.175 236.201 120.927 247.388 Q 132.679 258.575 132.679 279.141 Q 132.679 290.441 128.611 299.933 Q 124.543 309.425 116.746 316.205 Q 108.949 322.985 97.423 326.714 Q 85.897 330.443 71.207 330.443 Z" style="white-space:pre"/><path fill="#2F2F2F" d="M 249.124 224.223 L 248.446 224.223 L 236.92 247.275 L 206.184 303.097 L 176.126 247.501 L 164.148 222.641 L 163.47 222.641 L 163.47 327.731 L 131.152 327.731 L 131.152 169.983 L 167.538 169.983 L 206.184 243.885 L 206.636 243.885 L 244.83 169.983 L 281.442 169.983 L 281.442 327.731 L 249.124 327.731 Z" style="white-space:pre"/><path fill="#2F2F2F" d="M352.012 200.493 352.012 327.731 317.66 327.731 317.66 200.493 274.946 200.493 274.946 169.983 394.726 169.983 394.726 200.493ZM438.623 278.689 407.209 311.685 388.677 293.153 420.091 260.157 388.677 227.161 407.209 208.629 438.623 241.625 470.037 208.629 488.569 227.161 457.155 260.157 488.569 293.153 470.037 311.685Z" style="white-space:pre"/></svg>